<?xml version="1.0" encoding="UTF-8" standalone="no"?>
<svg
   width="23.999994"
   height="24"
   version="1.1"
   id="svg1"
   sodipodi:docname="github-mark-white.svg"
   xmlns:inkscape="http://www.inkscape.org/namespaces/inkscape"
   xmlns:sodipodi="http://sodipodi.sourceforge.net/DTD/sodipodi-0.dtd"
   xmlns="http://www.w3.org/2000/svg"
   xmlns:svg="http://www.w3.org/2000/svg">
  <defs
     id="defs1" />
  <sodipodi:namedview
     id="namedview1"
     pagecolor="#ffffff"
     bordercolor="#000000"
     borderopacity="0.25"
     inkscape:showpageshadow="2"
     inkscape:pageopacity="0.0"
     inkscape:pagecheckerboard="0"
     inkscape:deskcolor="#d1d1d1" />
  <path
     fill-rule="evenodd"
     clip-rule="evenodd"
     d="M 12.00993,0 C 5.368749,0 0,5.499977 0,12.304198 c 0,5.438978 3.439942,10.042958 8.212054,11.672451 0.596637,0.1225 0.815183,-0.264748 0.815183,-0.590497 0,-0.285249 -0.01967,-1.262995 -0.01967,-2.281741 -3.340871,0.733497 -4.036579,-1.466743 -4.036579,-1.466743 -0.5369,-1.425994 -1.332415,-1.792493 -1.332415,-1.792493 -1.093466,-0.753747 0.07965,-0.753747 0.07965,-0.753747 1.21294,0.0815 1.849402,1.262995 1.849402,1.262995 1.073553,1.873992 2.80348,1.344494 3.499434,1.018496 0.09932,-0.794497 0.41767,-1.344495 0.755691,-1.649993 -2.664585,-0.285249 -5.468066,-1.344495 -5.468066,-6.070725 0,-1.344494 0.476917,-2.44449 1.232607,-3.299986 C 5.468062,8.046716 5.050392,6.783471 5.706766,5.092728 c 0,0 1.014062,-0.325998 3.300555,1.262995 a 11.54678,11.742451 0 0 1 3.002606,-0.407498 c 1.014061,0 2.047789,0.142749 3.002359,0.407498 2.286739,-1.588993 3.300801,-1.262995 3.300801,-1.262995 0.656374,1.690743 0.238458,2.953988 0.119229,3.259487 0.775603,0.855496 1.232853,1.955492 1.232853,3.299986 0,4.72623 -2.803481,5.764976 -5.487978,6.070725 0.437583,0.386998 0.815183,1.120245 0.815183,2.28149 0,1.649993 -0.01967,2.974238 -0.01967,3.381486 0,0.325999 0.218791,0.713247 0.815182,0.590997 C 20.559998,22.346906 23.99994,17.743176 23.99994,12.304198 24.01961,5.499977 18.631192,0 12.009924,0 Z"
     fill="#ffffff"
     id="path1"
     style="stroke-width:0.247907" />
</svg>
