<?xml version="1.0" encoding="UTF-8" standalone="no"?>
<!-- Created with Inkscape (http://www.inkscape.org/) -->

<svg
   width="25.830479mm"
   height="25.40011mm"
   viewBox="0 0 25.830479 25.40011"
   version="1.1"
   id="svg1"
   xmlns:inkscape="http://www.inkscape.org/namespaces/inkscape"
   xmlns:sodipodi="http://sodipodi.sourceforge.net/DTD/sodipodi-0.dtd"
   xmlns="http://www.w3.org/2000/svg"
   xmlns:svg="http://www.w3.org/2000/svg">
  <sodipodi:namedview
     id="namedview1"
     pagecolor="#ffffff"
     bordercolor="#000000"
     borderopacity="0.25"
     inkscape:showpageshadow="2"
     inkscape:pageopacity="0.0"
     inkscape:pagecheckerboard="0"
     inkscape:deskcolor="#d1d1d1"
     inkscape:document-units="mm" />
  <defs
     id="defs1" />
  <g
     inkscape:label="Слой 1"
     inkscape:groupmode="layer"
     id="layer1"
     transform="translate(-92.075,-135.73125)">
    <path
       fill-rule="evenodd"
       clip-rule="evenodd"
       d="m 105.00095,135.73125 c -7.147715,0 -12.92595,5.82083 -12.92595,13.022 0,5.75627 3.702315,10.62884 8.83841,12.35339 0.64214,0.12965 0.87735,-0.28019 0.87735,-0.62494 0,-0.30189 -0.0212,-1.33668 -0.0212,-2.41485 -3.59569,0.77628 -4.34446,-1.55231 -4.34446,-1.55231 -0.57785,-1.50919 -1.434042,-1.89707 -1.434042,-1.89707 -1.176867,-0.79772 0.08573,-0.79772 0.08573,-0.79772 1.305454,0.0863 1.99046,1.33668 1.99046,1.33668 1.155436,1.98332 3.017312,1.42293 3.766352,1.07791 0.10689,-0.84084 0.44952,-1.42293 0.81332,-1.74625 -2.867818,-0.30189 -5.885126,-1.42293 -5.885126,-6.42488 0,-1.42292 0.513292,-2.58709 1.326621,-3.4925 -0.128323,-0.32332 -0.57785,-1.66026 0.128587,-3.44963 0,0 1.091407,-0.34502 3.552298,1.33667 a 12.427479,12.427479 0 0 1 3.23162,-0.43127 c 1.09141,0 2.20398,0.15108 3.23136,0.43127 2.46115,-1.68169 3.55256,-1.33667 3.55256,-1.33667 0.70644,1.78937 0.25664,3.12631 0.12832,3.44963 0.83476,0.90541 1.32689,2.06958 1.32689,3.4925 0,5.00195 -3.01731,6.1013 -5.90656,6.42488 0.47096,0.40958 0.87736,1.1856 0.87736,2.41459 0,1.74625 -0.0212,3.14775 -0.0212,3.57875 0,0.34502 0.23548,0.75486 0.87736,0.62548 5.13609,-1.72509 8.83841,-6.59739 8.83841,-12.35366 0.0212,-7.20117 -5.77824,-13.022 -12.90453,-13.022 z"
       fill="#24292f"
       id="path1"
       style="stroke-width:0.264583" />
  </g>
</svg>
